<svg width="24" height="24" viewBox="0 0 24 24" fill="none" xmlns="http://www.w3.org/2000/svg">
<path d="M19.079 14.829C18.4881 14.2477 18.1488 13.4578 18.134 12.629V10.829C18.133 9.35213 17.6212 7.92109 16.6855 6.77851C15.7497 5.63593 14.4477 4.85211 13 4.55998V3.09998C13 2.83476 12.8946 2.58041 12.7071 2.39287C12.5196 2.20533 12.2652 2.09998 12 2.09998C11.7348 2.09998 11.4804 2.20533 11.2929 2.39287C11.1054 2.58041 11 2.83476 11 3.09998V4.55998C9.55183 4.85222 8.24937 5.63647 7.31359 6.77967C6.37781 7.92287 5.86635 9.35462 5.866 10.832V12.418C5.86607 12.4886 5.87378 12.559 5.889 12.628H5.866C5.85125 13.4568 5.51194 14.2467 4.921 14.828C4.38423 15.3542 4.05692 16.0575 4 16.807C4 17.35 4 19 5.538 19H7.746C8.03584 19.9003 8.60385 20.6855 9.36829 21.2424C10.1327 21.7994 11.0542 22.0995 12 22.0995C12.9458 22.0995 13.8673 21.7994 14.6317 21.2424C15.3961 20.6855 15.9642 19.9003 16.254 19H18.462C20 19 20 17.35 20 16.807C19.9428 16.0578 19.6156 15.3549 19.079 14.829ZM12 20.1C11.5932 20.0995 11.1928 19.9989 10.834 19.807C10.4753 19.6152 10.1693 19.338 9.943 19H14.057C13.8307 19.338 13.5247 19.6152 13.166 19.807C12.8072 19.9989 12.4068 20.0995 12 20.1ZM18 17H6C6 16.933 6 16.864 6 16.807C6.1063 16.54 6.26627 16.2976 6.47 16.095C7.35569 15.1579 7.85559 13.9213 7.87 12.632V10.832C7.8681 9.71352 8.2954 8.63696 9.06382 7.82426C9.83224 7.01156 10.8832 6.52467 12 6.46398C13.1175 6.52368 14.1695 7.01014 14.9387 7.82295C15.708 8.63575 16.1359 9.71286 16.134 10.832V12.418C16.1342 12.4885 16.1416 12.5589 16.156 12.628H16.134C16.1484 13.9173 16.6483 15.1539 17.534 16.091C17.7377 16.2936 17.8977 16.536 18.004 16.803C18 16.864 18 16.933 18 17Z" fill="white"/>
</svg>
