<svg width="25" height="24" viewBox="0 0 25 24" fill="none" xmlns="http://www.w3.org/2000/svg">
<path d="M20.5 4H18.5V3C18.5 2.447 18.052 2 17.5 2C16.948 2 16.5 2.447 16.5 3V4H13.5V3C13.5 2.447 13.052 2 12.5 2C11.948 2 11.5 2.447 11.5 3V4H8.5V3C8.5 2.447 8.052 2 7.5 2C6.948 2 6.5 2.447 6.5 3V4H4.5C3.397 4 2.5 4.897 2.5 6V20C2.5 21.103 3.397 22 4.5 22H20.5C21.603 22 22.5 21.103 22.5 20V6C22.5 4.897 21.603 4 20.5 4ZM4.5 20V10H10.5C11.052 10 11.5 9.553 11.5 9C11.5 8.447 11.052 8 10.5 8H4.5V6H6.5C6.5 6.553 6.948 7 7.5 7C8.052 7 8.5 6.553 8.5 6H11.5C11.5 6.553 11.948 7 12.5 7C13.052 7 13.5 6.553 13.5 6H16.5C16.5 6.553 16.948 7 17.5 7C18.052 7 18.5 6.553 18.5 6H20.5V8H19.5C18.948 8 18.5 8.447 18.5 9C18.5 9.553 18.948 10 19.5 10H20.5L20.501 20H4.5Z" fill="#515151"/>
<path d="M13.015 10.005L11.359 11.682C11.34 11.698 11.317 11.704 11.299 11.722C11.28 11.741 11.273 11.766 11.256 11.786L7.788 15.297C7.604 15.484 7.5 15.737 7.5 16V18C7.5 18.553 7.948 19 8.5 19H10.5C10.763 19 11.016 18.896 11.203 18.712L14.714 15.244C14.734 15.227 14.759 15.221 14.778 15.202C14.796 15.184 14.802 15.161 14.818 15.142L16.499 13.481C17.458 12.522 17.458 10.96 16.499 10.002C15.54 9.041 13.979 9.041 13.015 10.005ZM10.089 17H9.5V16.41L12.021 13.858L12.642 14.479L10.089 17ZM15.089 12.062L14.064 13.074L13.426 12.435L14.433 11.415C14.613 11.235 14.905 11.235 15.084 11.415C15.263 11.595 15.265 11.887 15.089 12.062Z" fill="#515151"/>
</svg>
