<svg width="24" height="25" viewBox="0 0 24 25" fill="none" xmlns="http://www.w3.org/2000/svg">
<path fill-rule="evenodd" clip-rule="evenodd" d="M4.7999 6.49985C4.16338 6.49985 3.55293 6.75271 3.10285 7.2028C2.65276 7.65288 2.3999 8.26333 2.3999 8.89985V18.4999C2.3999 19.1364 2.65276 19.7468 3.10285 20.1969C3.55293 20.647 4.16338 20.8999 4.7999 20.8999H19.1999C19.8364 20.8999 20.4469 20.647 20.897 20.1969C21.347 19.7468 21.5999 19.1364 21.5999 18.4999V8.89985C21.5999 8.26333 21.347 7.65288 20.897 7.2028C20.4469 6.75271 19.8364 6.49985 19.1999 6.49985H17.2967C16.9785 6.49979 16.6733 6.37331 16.4483 6.14825L15.1031 4.80305C14.6531 4.35293 14.0428 4.09999 13.4063 4.09985H10.5935C9.95704 4.09999 9.34669 4.35293 8.8967 4.80305L7.5515 6.14825C7.32651 6.37331 7.02134 6.49979 6.7031 6.49985H4.7999ZM11.9999 17.2999C12.4727 17.2999 12.9408 17.2067 13.3776 17.0258C13.8143 16.8449 14.2112 16.5797 14.5455 16.2454C14.8798 15.9111 15.145 15.5143 15.3259 15.0775C15.5068 14.6407 15.5999 14.1726 15.5999 13.6999C15.5999 13.2271 15.5068 12.759 15.3259 12.3222C15.145 11.8854 14.8798 11.4886 14.5455 11.1543C14.2112 10.82 13.8143 10.5548 13.3776 10.3739C12.9408 10.193 12.4727 10.0999 11.9999 10.0999C11.0451 10.0999 10.1294 10.4791 9.45432 11.1543C8.77919 11.8294 8.3999 12.7451 8.3999 13.6999C8.3999 14.6546 8.77919 15.5703 9.45432 16.2454C10.1294 16.9206 11.0451 17.2999 11.9999 17.2999Z" fill="#6B7280"/>
</svg>
