<svg width="20" height="20" viewBox="0 0 20 20" fill="none" xmlns="http://www.w3.org/2000/svg">
<path d="M9.99998 5.5C10.9205 5.5 11.6666 4.82843 11.6666 4C11.6666 3.17157 10.9205 2.5 9.99998 2.5C9.07951 2.5 8.33331 3.17157 8.33331 4C8.33331 4.82843 9.07951 5.5 9.99998 5.5Z" fill="#6B7280"/>
<path d="M9.99998 11.5C10.9205 11.5 11.6666 10.8284 11.6666 10C11.6666 9.17157 10.9205 8.5 9.99998 8.5C9.07951 8.5 8.33331 9.17157 8.33331 10C8.33331 10.8284 9.07951 11.5 9.99998 11.5Z" fill="#6B7280"/>
<path d="M9.99998 17.5C10.9205 17.5 11.6666 16.8284 11.6666 16C11.6666 15.1716 10.9205 14.5 9.99998 14.5C9.07951 14.5 8.33331 15.1716 8.33331 16C8.33331 16.8284 9.07951 17.5 9.99998 17.5Z" fill="#6B7280"/>
</svg>
