<svg width="20" height="19" viewBox="0 0 20 19" fill="none" xmlns="http://www.w3.org/2000/svg">
<path d="M13.4185 11.1189L13.9068 10.6043V14.8267C13.9066 15.1423 13.7872 15.4403 13.5822 15.6563C13.3779 15.8716 13.1063 15.9877 12.8285 15.988H4.49501C4.21724 15.9877 3.94562 15.8716 3.74134 15.6563C3.5363 15.4403 3.41697 15.1424 3.41665 14.8269V6.04651C3.41697 5.73101 3.5363 5.43313 3.74134 5.21711C3.94557 5.00193 4.21709 4.88578 4.49479 4.88545C4.49486 4.88545 4.49494 4.88545 4.49501 4.88545L9.95539 4.88545L9.41921 5.45035H4.49455C4.33004 5.45035 4.17757 5.51943 4.06912 5.63368C3.96147 5.7471 3.90501 5.89592 3.90501 6.04629V14.8271C3.90501 14.9775 3.96147 15.1263 4.06912 15.2397C4.17756 15.354 4.33004 15.4231 4.49455 15.4231H12.8289C12.9935 15.4231 13.1459 15.354 13.2544 15.2397C13.362 15.1263 13.4185 14.9775 13.4185 14.8271V11.1189ZM16.0822 3.33598L16.0827 3.33652C16.2397 3.50143 16.3656 3.69868 16.452 3.91756C16.5383 4.13648 16.5832 4.37198 16.5833 4.61038C16.5835 4.84879 16.539 5.08436 16.4529 5.30341C16.3668 5.52243 16.2412 5.71988 16.0844 5.88503L16.0843 5.88514L10.5275 11.7395L10.5272 11.7399C10.4914 11.7777 10.4488 11.8004 10.4062 11.8094L7.88446 12.3408C7.86785 12.344 7.85109 12.3456 7.83435 12.3457C7.80239 12.3456 7.76994 12.3381 7.73906 12.3227C7.70784 12.3071 7.67815 12.2833 7.65334 12.2513C7.62847 12.2192 7.60949 12.1801 7.59924 12.1363C7.589 12.0925 7.5881 12.0465 7.5967 12.0022L7.59703 12.0004L8.10212 9.33891L8.10217 9.33866C8.11338 9.2794 8.14045 9.22812 8.17646 9.19009C8.17648 9.19008 8.17649 9.19006 8.17651 9.19005L13.7336 3.33598C14.0495 3.00331 14.4724 2.82131 14.9079 2.82131C15.3434 2.82131 15.7663 3.00331 16.0822 3.33598ZM15.7538 5.4656L15.7539 5.46547V3.75259C15.5339 3.52092 15.2301 3.38589 14.9079 3.38589C14.5856 3.38589 14.2818 3.52097 14.0618 3.75273L14.0617 3.75278L13.6788 4.15622L13.3715 4.47995L13.6788 4.80367L14.689 5.86797L15.0297 6.22697L15.3708 5.86829L15.7538 5.4656ZM10.1062 11.295L10.2495 11.2648L10.3502 11.1586L14.361 6.93224L14.6682 6.60852L14.3609 6.28482L13.3508 5.22052L13.0097 4.86118L12.6686 5.22052L8.65789 9.44611L8.56276 9.54633L8.53698 9.68209L8.28407 11.0136L8.15233 11.7072L8.84311 11.5615L10.1062 11.295Z" fill="white" stroke="white" stroke-width="0.940476"/>
</svg>
