<svg width="16" height="16" viewBox="0 0 16 16" fill="none" xmlns="http://www.w3.org/2000/svg">
<path d="M13.3334 2.66675H2.66671C2.31309 2.66675 1.97395 2.81659 1.7239 3.08331C1.47385 3.35003 1.33337 3.71177 1.33337 4.08897V11.9112C1.33337 12.2884 1.47385 12.6501 1.7239 12.9169C1.97395 13.1836 2.31309 13.3334 2.66671 13.3334H13.3334C13.687 13.3334 14.0261 13.1836 14.2762 12.9169C14.5262 12.6501 14.6667 12.2884 14.6667 11.9112V4.08897C14.6667 3.71177 14.5262 3.35003 14.2762 3.08331C14.0261 2.81659 13.687 2.66675 13.3334 2.66675V2.66675ZM12.9687 4.08897L8.02871 8.55759L3.03737 4.08897H12.9687ZM2.66671 11.9112V5.6143L7.20004 9.66764C7.42813 9.85063 7.70597 9.94925 7.99137 9.94853C8.29435 9.94725 8.58863 9.84037 8.82937 9.64417L13.3334 5.6143V11.9112H2.66671Z" fill="#AFAFAF"/>
</svg>
