<svg width="25" height="24" viewBox="0 0 25 24" fill="none" xmlns="http://www.w3.org/2000/svg">
<path d="M20.403 8.586C20.3556 8.47747 20.2892 8.37825 20.207 8.293L14.207 2.293C14.1217 2.21078 14.0225 2.14441 13.914 2.097C13.884 2.083 13.852 2.075 13.82 2.064C13.7363 2.03553 13.6492 2.01837 13.561 2.013C13.54 2.011 13.521 2 13.5 2H6.5C5.397 2 4.5 2.897 4.5 4V20C4.5 21.103 5.397 22 6.5 22H18.5C19.603 22 20.5 21.103 20.5 20V9C20.5 8.979 20.489 8.96 20.487 8.938C20.4821 8.84972 20.4649 8.76255 20.436 8.679C20.426 8.647 20.417 8.616 20.403 8.586ZM17.086 8H14.5V5.414L17.086 8ZM6.5 20V4H12.5V9C12.5 9.26522 12.6054 9.51957 12.7929 9.70711C12.9804 9.89464 13.2348 10 13.5 10H18.5L18.502 20H6.5Z" fill="#515151"/>
<path d="M8.5 12H16.5V14H8.5V12ZM8.5 16H16.5V18H8.5V16ZM8.5 8H10.5V10H8.5V8Z" fill="#515151"/>
</svg>
