<svg width="25" height="24" viewBox="0 0 25 24" fill="none" xmlns="http://www.w3.org/2000/svg">
<path d="M12.5 8.00012V13.0001H17.5V11.0001H14.5V8.00012H12.5Z" fill="#515151"/>
<path d="M21.792 8.49712C21.3409 7.42717 20.6861 6.45514 19.864 5.63512C18.6196 4.39069 17.0377 3.53823 15.314 3.18312C14.1176 2.93961 12.8844 2.93961 11.688 3.18312C9.96267 3.53596 8.37947 4.38912 7.136 5.63612C6.31589 6.45701 5.66133 7.42798 5.208 8.49612C4.73911 9.60473 4.49832 10.7964 4.5 12.0001L4.501 12.0251H2.5L5.5 16.0001L8.5 12.0251H6.501L6.5 12.0001C6.49712 10.6055 6.91346 9.2422 7.695 8.08712C8.19912 7.34181 8.84095 6.69964 9.586 6.19512C10.3439 5.68453 11.1941 5.32652 12.089 5.14112C13.9075 4.76723 15.8001 5.13075 17.3507 6.15179C18.9013 7.17283 19.983 8.76782 20.358 10.5861C20.5466 11.518 20.5466 12.4782 20.358 13.4101C20.175 14.3058 19.8168 15.1564 19.304 15.9131C19.054 16.2841 18.767 16.6331 18.45 16.9491C17.8112 17.5872 17.0558 18.0967 16.225 18.4501C15.8018 18.629 15.362 18.7657 14.912 18.8581C13.9804 19.0466 13.0206 19.0466 12.089 18.8581C11.1943 18.6747 10.3445 18.3169 9.588 17.8051C9.21595 17.5537 8.86871 17.2674 8.551 16.9501L7.137 18.3641C7.97212 19.2004 8.96403 19.8637 10.0559 20.316C11.1478 20.7683 12.3181 21.0008 13.5 21.0001C14.7031 20.9996 15.8939 20.7593 17.003 20.2931C18.6106 19.613 19.986 18.4804 20.962 17.0331C21.9665 15.547 22.5022 13.7938 22.5 12.0001C22.5025 10.7967 22.2617 9.60514 21.792 8.49712Z" fill="#515151"/>
</svg>
