<svg width="16" height="16" viewBox="0 0 16 16" fill="none" xmlns="http://www.w3.org/2000/svg">
<path d="M6.47673 8.00008C7.24406 8.00008 7.81006 7.43408 7.81006 6.66675C7.81006 5.89941 7.24406 5.33341 6.47673 5.33341C5.70939 5.33341 5.14339 5.89941 5.14339 6.66675C5.14339 7.43408 5.70873 8.00008 6.47673 8.00008Z" fill="#AFAFAF"/>
<path d="M13.3334 2.66675H2.66671C1.93137 2.66675 1.33337 3.22741 1.33337 3.91675V12.0834C1.33337 12.7727 1.93137 13.3334 2.66671 13.3334H13.3334C14.0687 13.3334 14.6667 12.7727 14.6667 12.0834V3.91675C14.6667 3.22741 14.0687 2.66675 13.3334 2.66675ZM13.3334 12.0001L2.66671 11.9927V4.00008L13.3334 4.00741V12.0001Z" fill="#AFAFAF"/>
<path d="M9.33337 6.00008H12V7.33341H9.33337V6.00008ZM10 8.66675H12V10.0001H10V8.66675ZM8.95337 10.3574C8.95337 9.44141 7.83604 8.50008 6.47671 8.50008C5.11737 8.50008 4.00004 9.44141 4.00004 10.3574V10.6667H8.95337V10.3574Z" fill="#AFAFAF"/>
</svg>
