<svg width="16" height="16" viewBox="0 0 16 16" fill="none" xmlns="http://www.w3.org/2000/svg">
<path d="M9.21767 6.7825C8.99402 6.55837 8.72836 6.38055 8.4359 6.25922C8.14344 6.1379 7.82993 6.07545 7.51331 6.07545C7.19668 6.07545 6.88317 6.1379 6.59071 6.25922C6.29825 6.38055 6.03259 6.55837 5.80894 6.7825L3.37375 9.21718C3.14964 9.44085 2.97183 9.70652 2.85051 9.999C2.72919 10.2915 2.66675 10.605 2.66675 10.9216C2.66675 11.2383 2.72919 11.5518 2.85051 11.8443C2.97183 12.1368 3.14964 12.4025 3.37375 12.6261C3.59741 12.8503 3.86307 13.0281 4.15553 13.1494C4.44798 13.2707 4.7615 13.3332 5.07812 13.3332C5.39474 13.3332 5.70826 13.2707 6.00072 13.1494C6.29318 13.0281 6.55884 12.8503 6.78249 12.6261L7.09811 12.3111M6.78249 9.21718C7.00614 9.44131 7.2718 9.61913 7.56426 9.74045C7.85672 9.86178 8.17024 9.92423 8.48686 9.92423C8.80348 9.92423 9.117 9.86178 9.40945 9.74045C9.70191 9.61913 9.96757 9.44131 10.1912 9.21718L12.6264 6.7825C12.8505 6.55883 13.0283 6.29315 13.1497 6.00068C13.271 5.7082 13.3334 5.39467 13.3334 5.07802C13.3334 4.76138 13.271 4.44785 13.1497 4.15537C13.0283 3.8629 12.8505 3.59722 12.6264 3.37355C12.4028 3.14942 12.1371 2.9716 11.8446 2.85028C11.5522 2.72895 11.2387 2.6665 10.922 2.6665C10.6054 2.6665 10.2919 2.72895 9.99945 2.85028C9.70699 2.9716 9.44133 3.14942 9.21767 3.37355L8.7322 3.85906" stroke="#AFAFAF" stroke-width="1.6" stroke-linecap="round" stroke-linejoin="round"/>
</svg>
