<svg width="70" height="34" viewBox="0 0 70 34" fill="none" xmlns="http://www.w3.org/2000/svg">
<g clip-path="url(#clip0_695_11188)">
<path d="M0.343307 9.70623C0.343307 8.97755 0.457742 8.29659 0.68531 7.66077C0.912878 7.02625 1.23928 6.47684 1.6645 6.01126C2.08843 5.54697 2.60469 5.18198 3.21327 4.91889C3.82185 4.6545 4.50586 4.52295 5.26528 4.52295C6.20287 4.52295 7.08973 4.69319 7.92588 5.03238L7.43173 6.89857C7.16515 6.78507 6.86476 6.69092 6.52926 6.61612C6.19376 6.54003 5.83616 6.50263 5.45514 6.50263C4.55527 6.50263 3.87127 6.78249 3.40313 7.34093C2.93368 7.90066 2.69961 8.68866 2.69961 9.70623C2.69961 10.7238 2.92068 11.4628 3.36541 12.0341C3.80885 12.6055 4.55657 12.8918 5.60729 12.8918C6 12.8918 6.38622 12.8544 6.76593 12.7783C7.14565 12.7035 7.47595 12.6093 7.75423 12.4958L8.07673 14.3801C7.82315 14.5052 7.43954 14.6187 6.92718 14.7193C6.41483 14.8199 5.88557 14.8702 5.34071 14.8702C4.49155 14.8702 3.75423 14.7412 3.12744 14.4845C2.50065 14.2266 1.9805 13.8694 1.56958 13.4102C1.15735 12.9511 0.85046 12.4056 0.647599 11.771C0.444738 11.1365 0.343307 10.4491 0.343307 9.70752V9.70623Z" fill="white"/>
<path d="M13.1703 4.52295C13.9298 4.52295 14.5696 4.6171 15.0897 4.80539C15.6086 4.99369 16.0234 5.25807 16.3342 5.59726C16.645 5.93645 16.8661 6.34787 16.9987 6.8315C17.1313 7.31514 17.199 7.84649 17.199 8.42427V14.3994C16.8439 14.4742 16.3082 14.5658 15.593 14.6728C14.8778 14.7799 14.0689 14.8328 13.1703 14.8328C12.5748 14.8328 12.0299 14.776 11.5358 14.6625C11.0416 14.549 10.6203 14.3672 10.2718 14.1157C9.92327 13.8642 9.65149 13.5379 9.45513 13.1355C9.25877 12.7331 9.15994 12.2379 9.15994 11.6472C9.15994 11.0565 9.27048 10.6039 9.49284 10.2144C9.71391 9.82488 10.0156 9.50762 10.3953 9.26257C10.775 9.01753 11.2159 8.84213 11.7165 8.73509C12.2172 8.62805 12.7399 8.57517 13.2848 8.57517C13.5384 8.57517 13.8036 8.59064 14.0832 8.62289C14.3615 8.65384 14.6593 8.70801 14.9766 8.78281V8.40622C14.9766 8.14183 14.9454 7.89163 14.8817 7.65175C14.8179 7.41315 14.7074 7.20293 14.5488 7.0198C14.3901 6.83795 14.1807 6.69608 13.922 6.59549C13.6619 6.49489 13.3355 6.44459 12.9428 6.44459C12.4109 6.44459 11.9233 6.48199 11.4798 6.55809C11.0364 6.63289 10.6749 6.72188 10.3966 6.82247L10.1118 4.97563C10.4031 4.87504 10.827 4.77444 11.3849 4.67384C11.9428 4.57325 12.5371 4.52295 13.1716 4.52295H13.1703ZM13.3602 13.0233C14.0702 13.0233 14.6073 12.9859 14.9753 12.9098V10.3846C14.8478 10.3472 14.6645 10.3098 14.4239 10.2711C14.1833 10.2337 13.9168 10.2144 13.6255 10.2144C13.3719 10.2144 13.1157 10.2337 12.8557 10.2711C12.5956 10.3085 12.3615 10.3782 12.1521 10.4788C11.9428 10.5794 11.775 10.7212 11.6489 10.9031C11.5228 11.0849 11.459 11.3145 11.459 11.5905C11.459 12.1309 11.6294 12.5049 11.9727 12.7125C12.316 12.9201 12.7776 13.0233 13.3602 13.0233Z" fill="white"/>
<path d="M23.4707 14.8134C22.7867 14.8005 22.2198 14.7257 21.7698 14.5877C21.3199 14.4497 20.9623 14.2511 20.6957 13.9945C20.4291 13.7365 20.2432 13.4167 20.1352 13.0336C20.0273 12.6506 19.974 12.2134 19.974 11.7233V0.376591L22.2731 0V11.29C22.2731 11.566 22.2952 11.7994 22.3394 11.9877C22.3836 12.176 22.4629 12.3359 22.5774 12.4688C22.6918 12.6003 22.8466 12.7009 23.0429 12.7705C23.2393 12.8402 23.4903 12.8931 23.7932 12.9305L23.4707 14.8147V14.8134Z" fill="white"/>
<path d="M29.1144 14.8134C28.4304 14.8005 27.8634 14.7257 27.4135 14.5877C26.9636 14.4497 26.606 14.2511 26.3394 13.9945C26.0728 13.7365 25.8869 13.4167 25.7789 13.0336C25.671 12.6506 25.6177 12.2134 25.6177 11.7233V0.376591L27.9168 0V11.29C27.9168 11.566 27.9389 11.7994 27.9831 11.9877C28.0273 12.176 28.1066 12.3359 28.2211 12.4688C28.3355 12.6003 28.4902 12.7009 28.6866 12.7705C28.883 12.8402 29.1326 12.8931 29.4369 12.9305L29.1144 14.8147V14.8134Z" fill="white"/>
<path d="M35.2146 0C35.7334 0 36.1808 0.0374011 36.554 0.113493C36.9272 0.188295 37.1912 0.257939 37.342 0.321134L37.0195 1.82879C36.8674 1.75398 36.6515 1.68176 36.3732 1.61212C36.0949 1.54376 35.7529 1.50894 35.3472 1.50894C34.5241 1.50894 33.9467 1.73206 33.6177 2.17829C33.2887 2.62453 33.1236 3.22424 33.1236 3.97871V4.82732H36.9246V6.29758H33.1236V14.6277H31.3563V3.93873C31.3563 2.68256 31.6671 1.71142 32.2874 1.0266C32.9077 0.341769 33.8843 0 35.2133 0L35.2146 0Z" fill="white"/>
<path d="M41.8842 4.57983C42.5943 4.57983 43.1924 4.6714 43.6801 4.85325C44.1677 5.0351 44.5605 5.29303 44.8582 5.62578C45.156 5.95852 45.368 6.35445 45.4954 6.81358C45.6216 7.27272 45.6853 7.77827 45.6853 8.33026V14.455C45.5331 14.4808 45.3212 14.5143 45.0481 14.5582C44.775 14.602 44.4681 14.6433 44.1261 14.6807C43.7841 14.7181 43.4135 14.7529 43.0143 14.7839C42.6151 14.8148 42.2184 14.8316 41.827 14.8316C41.2692 14.8316 40.7568 14.7749 40.2874 14.6614C39.8179 14.5479 39.4135 14.3699 39.0715 14.1249C38.7295 13.8798 38.4629 13.5561 38.2731 13.1537C38.0832 12.7513 37.9883 12.2677 37.9883 11.7028C37.9883 11.1379 38.0988 10.6981 38.3212 10.3087C38.5422 9.91917 38.8439 9.60448 39.2237 9.36589C39.6034 9.1273 40.0468 8.9519 40.5539 8.8384C41.0611 8.72491 41.593 8.66945 42.1508 8.66945C42.3277 8.66945 42.5123 8.67848 42.7022 8.69783C42.8921 8.71717 43.0728 8.74168 43.2432 8.77392C43.4148 8.80487 43.5631 8.83324 43.6892 8.85904C43.8153 8.88483 43.9051 8.90289 43.9558 8.91578V8.4257C43.9558 8.13681 43.9246 7.8505 43.8608 7.56805C43.7971 7.28561 43.6827 7.03412 43.5188 6.81358C43.3537 6.59434 43.1287 6.41765 42.8439 6.2861C42.5592 6.15455 42.1885 6.08878 41.7321 6.08878C41.1495 6.08878 40.6398 6.13005 40.2028 6.2113C39.7659 6.29255 39.4395 6.37767 39.2237 6.46537L39.0143 5.01446C39.2419 4.91387 39.6229 4.81585 40.1547 4.7217C40.6866 4.62755 41.2627 4.57983 41.8842 4.57983ZM42.0364 13.3626C42.4538 13.3626 42.8244 13.3536 43.1482 13.3343C43.4707 13.3162 43.7399 13.2814 43.9558 13.2311V10.3099C43.8296 10.2467 43.6229 10.1939 43.3381 10.15C43.0533 10.1062 42.7074 10.0842 42.303 10.0842C42.0364 10.0842 41.7555 10.1036 41.4577 10.141C41.1599 10.1784 40.8882 10.2571 40.6411 10.377C40.394 10.4969 40.1885 10.6595 40.0234 10.8671C39.8582 11.0747 39.7763 11.3481 39.7763 11.6873C39.7763 12.3154 39.9792 12.7526 40.3849 12.9977C40.7906 13.2427 41.3407 13.3652 42.0377 13.3652L42.0364 13.3626Z" fill="white"/>
<path d="M52.9064 14.8521C52.1079 14.8521 51.4083 14.7257 50.8062 14.4755C50.2042 14.224 49.697 13.8719 49.2861 13.4205C48.8739 12.9679 48.567 12.4314 48.3641 11.8097C48.1612 11.1881 48.0598 10.4994 48.0598 9.74621C48.0598 8.99303 48.1704 8.30175 48.3927 7.67367C48.6138 7.04559 48.9285 6.50263 49.3329 6.0435C49.7386 5.58566 50.2354 5.22712 50.8244 4.96918C51.4135 4.71124 52.0689 4.58228 52.7906 4.58228C53.2341 4.58228 53.6775 4.61968 54.1209 4.69577C54.5644 4.77057 54.9883 4.89051 55.394 5.0543L54.9948 6.54261C54.7282 6.41751 54.4213 6.31691 54.0728 6.24082C53.7243 6.16602 53.3537 6.12733 52.961 6.12733C51.9727 6.12733 51.2159 6.43557 50.6905 7.05075C50.1651 7.66722 49.9012 8.56485 49.9012 9.74621C49.9012 10.2737 49.961 10.7573 50.0819 11.1971C50.2029 11.6369 50.3927 12.0135 50.6515 12.3282C50.9116 12.6429 51.2432 12.884 51.6489 13.053C52.0546 13.2232 52.5488 13.3071 53.1313 13.3071C53.5995 13.3071 54.0247 13.2632 54.4044 13.1755C54.7841 13.0878 55.0819 12.9937 55.2978 12.8931L55.5449 14.3633C55.4434 14.4265 55.2978 14.4858 55.1079 14.5426C54.9181 14.5993 54.7022 14.6496 54.4616 14.6935C54.2211 14.7373 53.9636 14.7747 53.6918 14.807C53.4187 14.8379 53.156 14.8547 52.9038 14.8547L52.9064 14.8521Z" fill="white"/>
<path d="M56.896 9.7437C56.896 8.87703 57.0221 8.11997 57.2757 7.47255C57.5293 6.82512 57.8648 6.28861 58.2835 5.86172C58.7009 5.43483 59.1834 5.11499 59.7282 4.9009C60.2731 4.68681 60.831 4.58105 61.4005 4.58105C62.7308 4.58105 63.7504 4.99247 64.4604 5.81529C65.1704 6.63812 65.5241 7.8917 65.5241 9.57475V9.86622C65.5241 9.98616 65.5176 10.0958 65.5046 10.1964H58.7387C58.8141 11.2139 59.1119 11.9865 59.632 12.514C60.1509 13.0414 60.9623 13.3058 62.065 13.3058C62.6853 13.3058 63.2081 13.253 63.6333 13.1459C64.0572 13.0389 64.3771 12.9357 64.593 12.8351L64.8401 14.3053C64.6242 14.4188 64.2471 14.5375 63.7087 14.6639C63.1704 14.789 62.5592 14.8522 61.8752 14.8522C61.013 14.8522 60.2692 14.7232 59.6424 14.4653C59.0156 14.2073 58.4994 13.8527 58.0937 13.4C57.6879 12.9473 57.3875 12.4108 57.1912 11.7892C56.9948 11.1675 56.8973 10.4853 56.8973 9.7437H56.896ZM63.6801 8.78288C63.6931 7.99101 63.4929 7.341 63.082 6.83286C62.6697 6.32343 62.1028 6.06936 61.381 6.06936C60.9753 6.06936 60.6177 6.14803 60.3069 6.30538C59.9961 6.46272 59.7334 6.66649 59.5189 6.91798C59.303 7.16947 59.1353 7.45836 59.0156 7.78465C58.8947 8.11224 58.8167 8.44498 58.7777 8.78417H63.6801V8.78288Z" fill="white"/>
<path d="M50.303 33.75C39.8856 33.75 31.3576 25.3438 31.3576 15.0121H33.1131C33.1131 24.4913 40.7464 32.2024 50.3043 32.2024C59.8622 32.2024 67.6372 24.4913 67.6372 15.0121H69.3576C69.3576 25.3438 60.7217 33.75 50.3043 33.75H50.303Z" fill="white"/>
<path d="M68.5007 14.5104C69.1391 14.5104 69.6567 13.997 69.6567 13.3638C69.6567 12.7306 69.1391 12.2173 68.5007 12.2173C67.8622 12.2173 67.3446 12.7306 67.3446 13.3638C67.3446 13.997 67.8622 14.5104 68.5007 14.5104Z" fill="white"/>
</g>
<defs>
<clipPath id="clip0_695_11188">
<rect width="70" height="33.75" fill="white"/>
</clipPath>
</defs>
</svg>
