<svg width="24" height="25" viewBox="0 0 24 25" fill="none" xmlns="http://www.w3.org/2000/svg">
<path fill-rule="evenodd" clip-rule="evenodd" d="M8.39985 5.29995C8.39985 4.34517 8.77914 3.4295 9.45427 2.75437C10.1294 2.07924 11.0451 1.69995 11.9999 1.69995C12.9546 1.69995 13.8703 2.07924 14.5454 2.75437C15.2206 3.4295 15.5999 4.34517 15.5999 5.29995V10.1C15.5999 11.0547 15.2206 11.9704 14.5454 12.6455C13.8703 13.3207 12.9546 13.7 11.9999 13.7C11.0451 13.7 10.1294 13.3207 9.45427 12.6455C8.77914 11.9704 8.39985 11.0547 8.39985 10.1V5.29995ZM13.1999 18.416C15.1993 18.1271 17.0277 17.1274 18.3501 15.6001C19.6724 14.0728 20.4001 12.1202 20.3999 10.1C20.3999 9.78169 20.2734 9.47647 20.0484 9.25142C19.8233 9.02638 19.5181 8.89995 19.1999 8.89995C18.8816 8.89995 18.5764 9.02638 18.3513 9.25142C18.1263 9.47647 17.9999 9.78169 17.9999 10.1C17.9999 11.6913 17.3677 13.2174 16.2425 14.3426C15.1173 15.4678 13.5912 16.1 11.9999 16.1C10.4086 16.1 8.88243 15.4678 7.75721 14.3426C6.63199 13.2174 5.99985 11.6913 5.99985 10.1C5.99985 9.78169 5.87343 9.47647 5.64838 9.25142C5.42334 9.02638 5.11811 8.89995 4.79985 8.89995C4.48159 8.89995 4.17637 9.02638 3.95133 9.25142C3.72628 9.47647 3.59985 9.78169 3.59985 10.1C3.59959 12.1202 4.32729 14.0728 5.64964 15.6001C6.97198 17.1274 8.8004 18.1271 10.7999 18.416V20.9H7.19985C6.88159 20.9 6.57637 21.0264 6.35133 21.2514C6.12628 21.4765 5.99985 21.7817 5.99985 22.1C5.99985 22.4182 6.12628 22.7234 6.35133 22.9485C6.57637 23.1735 6.88159 23.3 7.19985 23.3H16.7999C17.1181 23.3 17.4233 23.1735 17.6484 22.9485C17.8734 22.7234 17.9999 22.4182 17.9999 22.1C17.9999 21.7817 17.8734 21.4765 17.6484 21.2514C17.4233 21.0264 17.1181 20.9 16.7999 20.9H13.1999V18.416Z" fill="#6B7280"/>
</svg>
