<svg width="33" height="33" viewBox="0 0 33 33" fill="none" xmlns="http://www.w3.org/2000/svg">
<path d="M29.285 27.3604L24.7677 22.8431C26.2195 20.9828 27.0083 18.6908 27.009 16.3311H24.3423C24.3414 17.9836 23.8244 19.5946 22.8637 20.9391L20.9277 19.0031C21.3917 18.2151 21.6757 17.3097 21.6757 16.3311V8.33106C21.6757 5.37506 19.2957 2.96973 16.3703 2.96973C16.277 2.96973 16.1837 2.98173 16.0917 3.00306C14.7225 3.06911 13.4313 3.65911 12.4851 4.65091C11.539 5.64271 11.0105 6.96036 11.009 8.33106V9.08439L5.28499 3.36039L3.39966 5.24573L27.3997 29.2457L29.285 27.3604ZM13.6757 8.33106C13.6757 6.86039 14.8717 5.66439 16.3423 5.66439C16.4157 5.66429 16.4888 5.6576 16.561 5.64439C17.9263 5.74306 19.009 6.91106 19.009 8.33106V16.3311C19.009 16.5604 18.9703 16.7777 18.9143 16.9897L13.6757 11.7511V8.33106ZM8.34233 16.3311H5.67566C5.67566 21.7604 9.75566 26.2457 15.009 26.9057V29.6644H17.6757V26.9044C18.6956 26.7769 19.6917 26.5025 20.633 26.0897L18.5557 24.0124C17.8365 24.2221 17.0914 24.3294 16.3423 24.3311C11.9303 24.3311 8.34233 20.7417 8.34233 16.3311Z" fill="white"/>
<path d="M11.0236 16.479C11.0625 17.8377 11.6197 19.13 12.5808 20.0912C13.5419 21.0523 14.8343 21.6094 16.1929 21.6483L11.0236 16.479Z" fill="white"/>
</svg>
