<svg width="24" height="25" viewBox="0 0 24 25" fill="none" xmlns="http://www.w3.org/2000/svg">
<path d="M16 12.5V6.5C16 4.283 14.215 2.479 12.021 2.479C11.9506 2.47943 11.8805 2.48781 11.812 2.504C10.7853 2.55378 9.81693 2.99636 9.10738 3.74016C8.39783 4.48395 8.00136 5.47205 8 6.5V12.5C8 14.706 9.794 16.5 12 16.5C14.206 16.5 16 14.706 16 12.5ZM10 12.5V6.5C10 5.397 10.897 4.5 12 4.5C12.0547 4.50002 12.1092 4.495 12.163 4.485C13.188 4.56 14 5.435 14 6.5V12.5C14 13.603 13.103 14.5 12 14.5C10.897 14.5 10 13.603 10 12.5Z" fill="#30D158"/>
<path d="M6 12.5H4C4 16.572 7.061 19.936 11 20.431V22.5H13V20.431C16.939 19.936 20 16.573 20 12.5H18C18 15.809 15.309 18.5 12 18.5C8.691 18.5 6 15.809 6 12.5Z" fill="#30D158"/>
</svg>
