<svg width="24" height="25" viewBox="0 0 24 25" fill="none" xmlns="http://www.w3.org/2000/svg">
<path d="M3.40571 21.4139L21.4057 13.4139C21.5826 13.3354 21.7329 13.2072 21.8384 13.045C21.9439 12.8828 22 12.6934 22 12.4999C22 12.3064 21.9439 12.117 21.8384 11.9548C21.7329 11.7925 21.5826 11.6644 21.4057 11.5859L3.40571 3.58589C3.23443 3.50979 3.04521 3.48336 2.85963 3.50961C2.67405 3.53587 2.49959 3.61375 2.35614 3.73437C2.21268 3.85499 2.10601 4.0135 2.0483 4.19182C1.99058 4.37013 1.98414 4.56108 2.02971 4.74289L3.71871 11.4999L12.9997 11.4999C13.2649 11.4999 13.5193 11.6052 13.7068 11.7928C13.8944 11.9803 13.9997 12.2347 13.9997 12.4999C13.9997 12.7651 13.8944 13.0195 13.7068 13.207C13.5193 13.3945 13.2649 13.4999 12.9997 13.4999L3.71871 13.4999L2.02971 20.2579C1.98438 20.4396 1.991 20.6304 2.04882 20.8086C2.10664 20.9867 2.21333 21.1451 2.35674 21.2656C2.50015 21.386 2.67451 21.4638 2.85997 21.49C3.04542 21.5163 3.23452 21.4899 3.40571 21.4139V21.4139Z" fill="#6B7280"/>
</svg>
