<svg width="16" height="16" viewBox="0 0 16 16" fill="none" xmlns="http://www.w3.org/2000/svg">
<path d="M11.3334 1.33325H4.66671C4.31309 1.33325 3.97395 1.47373 3.7239 1.72378C3.47385 1.97382 3.33337 2.31296 3.33337 2.66659V13.3333C3.33337 13.6869 3.47385 14.026 3.7239 14.2761C3.97395 14.5261 4.31309 14.6666 4.66671 14.6666H11.3334C11.687 14.6666 12.0261 14.5261 12.2762 14.2761C12.5262 14.026 12.6667 13.6869 12.6667 13.3333V2.66659C12.6667 2.31296 12.5262 1.97382 12.2762 1.72378C12.0261 1.47373 11.687 1.33325 11.3334 1.33325ZM4.66671 4.66659H11.3334V9.99992H4.66671V4.66659ZM11.3334 2.66659V3.33325H4.66671V2.66659H11.3334ZM4.66671 13.3333V11.3333H11.3334V13.3333H4.66671Z" fill="#AFAFAF"/>
<path d="M8.33337 11.9999H7.66671C7.5783 11.9999 7.49352 12.035 7.43101 12.0975C7.36849 12.1601 7.33337 12.2448 7.33337 12.3333C7.33337 12.4217 7.36849 12.5064 7.43101 12.569C7.49352 12.6315 7.5783 12.6666 7.66671 12.6666H8.33337C8.42178 12.6666 8.50656 12.6315 8.56908 12.569C8.63159 12.5064 8.66671 12.4217 8.66671 12.3333C8.66671 12.2448 8.63159 12.1601 8.56908 12.0975C8.50656 12.035 8.42178 11.9999 8.33337 11.9999Z" fill="#AFAFAF"/>
</svg>
