<svg width="24" height="21" viewBox="0 0 24 21" fill="none" xmlns="http://www.w3.org/2000/svg">
<path d="M20.7461 10.4862C20.7461 14.5536 17.4603 17.8509 13.4069 17.8509C9.3536 17.8509 6.06772 14.5536 6.06772 10.4862C6.06772 6.41881 9.3536 3.12152 13.4069 3.12152C17.4603 3.12152 20.7461 6.41881 20.7461 10.4862Z" fill="#282828"/>
<path d="M20.0176 20.4316C21.0918 20.4316 21.8994 20.1603 22.4401 19.6176C22.9809 19.0823 23.2513 18.283 23.2513 17.2197V3.73412C23.2513 2.67082 22.9809 1.87151 22.4401 1.33619C21.8994 0.793542 21.0918 0.522217 20.0176 0.522217H10.6455C10.2289 0.522217 9.8416 0.558882 9.48352 0.632213C9.12544 0.698211 8.78563 0.819208 8.46409 0.995202C8.14255 1.16386 7.83928 1.39486 7.55428 1.68818L0.977325 8.48597C0.758093 8.7133 0.5754 8.93696 0.429245 9.15695C0.290398 9.36961 0.18809 9.58227 0.122321 9.79493C0.0565512 10.0076 0.0236664 10.2239 0.0236664 10.4439C0.0236664 10.7739 0.100398 11.1002 0.25386 11.4229C0.407322 11.7455 0.648477 12.0792 0.977325 12.4238L7.56524 19.1226C7.85024 19.416 8.14986 19.658 8.46409 19.8486C8.78563 20.0393 9.12544 20.1823 9.48352 20.2776C9.84891 20.3729 10.2399 20.4206 10.6564 20.4206L20.0176 20.4316ZM9.71371 15.1078C9.51641 15.1078 9.34833 15.0418 9.20948 14.9098C9.07794 14.7704 9.01217 14.6018 9.01217 14.4038C9.01217 14.2058 9.0816 14.0371 9.22044 13.8978L12.6185 10.4879L9.22044 7.07801C9.0816 6.93869 9.01217 6.77002 9.01217 6.57203C9.01217 6.37404 9.07794 6.20904 9.20948 6.07704C9.34833 5.94505 9.51641 5.87905 9.71371 5.87905C9.91833 5.87905 10.0864 5.95238 10.2179 6.09904L13.616 9.49794L17.0361 6.08804C17.1749 5.94138 17.3393 5.86805 17.5293 5.86805C17.7266 5.86805 17.8911 5.93772 18.0226 6.07704C18.1614 6.20904 18.2309 6.37037 18.2309 6.56103C18.2309 6.75169 18.1614 6.92035 18.0226 7.06701L14.6135 10.4879L18.0116 13.8868C18.1505 14.0408 18.2199 14.2131 18.2199 14.4038C18.2199 14.6018 18.1505 14.7704 18.0116 14.9098C17.8801 15.0418 17.7157 15.1078 17.5184 15.1078C17.3284 15.1078 17.1566 15.0344 17.0032 14.8878L13.616 11.4889L10.2399 14.8878C10.0937 15.0344 9.91833 15.1078 9.71371 15.1078Z" fill="#282828"/>
<path d="M20.7461 10.4862C20.7461 14.5536 17.4603 17.8509 13.4069 17.8509C9.3536 17.8509 6.06772 14.5536 6.06772 10.4862C6.06772 6.41881 9.3536 3.12152 13.4069 3.12152C17.4603 3.12152 20.7461 6.41881 20.7461 10.4862Z" fill="white"/>
<path d="M20.0176 20.4316C21.0918 20.4316 21.8994 20.1603 22.4401 19.6176C22.9809 19.0823 23.2513 18.283 23.2513 17.2197V3.73412C23.2513 2.67082 22.9809 1.87151 22.4401 1.33619C21.8994 0.793542 21.0918 0.522217 20.0176 0.522217H10.6455C10.2289 0.522217 9.8416 0.558882 9.48352 0.632213C9.12544 0.698211 8.78563 0.819208 8.46409 0.995202C8.14255 1.16386 7.83928 1.39486 7.55428 1.68818L0.977325 8.48597C0.758093 8.7133 0.5754 8.93696 0.429245 9.15695C0.290398 9.36961 0.18809 9.58227 0.122321 9.79493C0.0565512 10.0076 0.0236664 10.2239 0.0236664 10.4439C0.0236664 10.7739 0.100398 11.1002 0.25386 11.4229C0.407322 11.7455 0.648477 12.0792 0.977325 12.4238L7.56524 19.1226C7.85024 19.416 8.14986 19.658 8.46409 19.8486C8.78563 20.0393 9.12544 20.1823 9.48352 20.2776C9.84891 20.3729 10.2399 20.4206 10.6564 20.4206L20.0176 20.4316ZM9.71371 15.1078C9.51641 15.1078 9.34833 15.0418 9.20948 14.9098C9.07794 14.7704 9.01217 14.6018 9.01217 14.4038C9.01217 14.2058 9.0816 14.0371 9.22044 13.8978L12.6185 10.4879L9.22044 7.07801C9.0816 6.93869 9.01217 6.77002 9.01217 6.57203C9.01217 6.37404 9.07794 6.20904 9.20948 6.07704C9.34833 5.94505 9.51641 5.87905 9.71371 5.87905C9.91833 5.87905 10.0864 5.95238 10.2179 6.09904L13.616 9.49794L17.0361 6.08804C17.1749 5.94138 17.3393 5.86805 17.5293 5.86805C17.7266 5.86805 17.8911 5.93772 18.0226 6.07704C18.1614 6.20904 18.2309 6.37037 18.2309 6.56103C18.2309 6.75169 18.1614 6.92035 18.0226 7.06701L14.6135 10.4879L18.0116 13.8868C18.1505 14.0408 18.2199 14.2131 18.2199 14.4038C18.2199 14.6018 18.1505 14.7704 18.0116 14.9098C17.8801 15.0418 17.7157 15.1078 17.5184 15.1078C17.3284 15.1078 17.1566 15.0344 17.0032 14.8878L13.616 11.4889L10.2399 14.8878C10.0937 15.0344 9.91833 15.1078 9.71371 15.1078Z" fill="#AFAFAF"/>
</svg>
