<svg width="33" height="33" viewBox="0 0 33 33" fill="none" xmlns="http://www.w3.org/2000/svg">
<path d="M14.1513 16.9783C13.5759 16.0656 13.1273 15.0787 12.818 14.045L14.938 11.925C15.063 11.801 15.1622 11.6536 15.2298 11.4911C15.2975 11.3286 15.3324 11.1543 15.3324 10.9783C15.3324 10.8023 15.2975 10.628 15.2298 10.4656C15.1622 10.3031 15.063 10.1556 14.938 10.0317L9.60466 4.69832C9.35484 4.44999 9.0169 4.3106 8.66466 4.3106C8.31241 4.3106 7.97447 4.44999 7.72466 4.69832L4.15132 8.31166C3.89855 8.56289 3.69871 8.86223 3.56359 9.19201C3.42847 9.52178 3.36083 9.8753 3.36466 10.2317C3.47953 14.9053 5.18176 19.4007 8.19132 22.9783L3.76466 27.365L5.64466 29.2583L29.6447 5.25832L27.7647 3.36499L14.1513 16.9783ZM10.0313 21.045C7.5306 17.9765 6.12319 14.1624 6.03132 10.205L8.69799 7.53832L12.1513 10.9783L10.4313 12.6983C10.2734 12.8563 10.1576 13.0514 10.0947 13.2657C10.0318 13.48 10.0238 13.7067 10.0713 13.925C10.476 15.7026 11.2085 17.3892 12.2313 18.8983L10.0313 21.045ZM22.978 18.0317C22.7282 17.7833 22.3902 17.6439 22.038 17.6439C21.6857 17.6439 21.3478 17.7833 21.098 18.0317L18.9647 20.165L18.5113 20.005L16.4313 22.0717C17.2928 22.4422 18.1851 22.7366 19.098 22.9517C19.3142 22.9969 19.5383 22.9876 19.7501 22.9248C19.9619 22.862 20.1547 22.7475 20.3113 22.5917L22.0447 20.8583L25.4847 24.3117L22.818 26.9783C19.7209 26.8978 16.6959 26.0257 14.0313 24.445L12.1247 26.3783C15.3173 28.4163 19.005 29.5457 22.7913 29.645C23.1445 29.6488 23.4949 29.5824 23.8222 29.4496C24.1496 29.3169 24.4472 29.1204 24.698 28.8717L28.3113 25.2583C28.4363 25.1344 28.5355 24.9869 28.6032 24.8244C28.6709 24.6619 28.7057 24.4877 28.7057 24.3117C28.7057 24.1356 28.6709 23.9614 28.6032 23.7989C28.5355 23.6364 28.4363 23.4889 28.3113 23.365L22.978 18.0317Z" fill="white"/>
</svg>
