<svg width="26" height="26" viewBox="0 0 26 26" fill="none" xmlns="http://www.w3.org/2000/svg">
<path d="M7.39921 18.29C3.53618 14.4404 0.608826 9.7887 0.608826 5.9524C0.608826 4.25481 1.1836 2.71761 2.48019 1.47449C3.26884 0.712578 4.17779 0.311571 5.06 0.311571C5.78181 0.311571 6.43679 0.592276 6.90463 1.23389L9.77852 5.28406C10.2196 5.9123 10.4469 6.43361 10.4469 6.91482C10.4469 7.5297 10.086 8.06437 9.49781 8.67925L8.54876 9.65503C8.40173 9.80207 8.34826 9.97584 8.34826 10.1496C8.34826 10.3501 8.42846 10.5372 8.49529 10.6843C8.92304 11.513 10.1394 12.9299 11.4494 14.2399C12.7727 15.5498 14.1896 16.7662 15.0183 17.2073C15.152 17.2742 15.3525 17.3544 15.553 17.3544C15.7268 17.3544 15.9139 17.2875 16.061 17.1405L17.01 16.2048C17.6249 15.6033 18.1729 15.2558 18.7744 15.2558C19.2556 15.2558 19.777 15.4696 20.4052 15.8974L24.5088 18.8114C25.1371 19.2658 25.3911 19.9074 25.3911 20.5758C25.3911 21.4847 24.9499 22.4071 24.2415 23.1957C23.0251 24.5324 21.5147 25.1339 19.7903 25.1339C15.954 25.1339 11.2622 22.1531 7.39921 18.29Z" fill="white"/>
</svg>
