<svg width="19" height="19" viewBox="0 0 19 19" fill="none" xmlns="http://www.w3.org/2000/svg">
<g clip-path="url(#clip0_4002_4604)">
<path d="M9.4999 1.56763C5.17371 1.56763 1.6626 5.07874 1.6626 9.40493C1.6626 13.7311 5.17371 17.2422 9.4999 17.2422C13.8261 17.2422 17.3372 13.7311 17.3372 9.40493C17.3372 5.07874 13.8261 1.56763 9.4999 1.56763ZM9.4999 15.6748C6.03581 15.6748 3.23006 12.869 3.23006 9.40493C3.23006 5.94084 6.03581 3.13509 9.4999 3.13509C12.964 3.13509 15.7697 5.94084 15.7697 9.40493C15.7697 12.869 12.964 15.6748 9.4999 15.6748Z" fill="white"/>
<path d="M9.49995 13.3234C11.6642 13.3234 13.4186 11.5689 13.4186 9.40474C13.4186 7.24052 11.6642 5.48608 9.49995 5.48608C7.33574 5.48608 5.5813 7.24052 5.5813 9.40474C5.5813 11.5689 7.33574 13.3234 9.49995 13.3234Z" fill="white"/>
</g>
<defs>
<clipPath id="clip0_4002_4604">
<rect width="18.8095" height="18.8095" fill="white" transform="translate(0.0952148)"/>
</clipPath>
</defs>
</svg>
