<svg width="25" height="24" viewBox="0 0 25 24" fill="none" xmlns="http://www.w3.org/2000/svg">
<path d="M12.5 14.0001C13.2911 14.0001 14.0645 13.7655 14.7223 13.3259C15.3801 12.8864 15.8928 12.2617 16.1955 11.5308C16.4983 10.7999 16.5775 9.99562 16.4231 9.2197C16.2688 8.44377 15.8878 7.73104 15.3284 7.17163C14.769 6.61222 14.0563 6.23126 13.2804 6.07692C12.5044 5.92258 11.7002 6.00179 10.9693 6.30454C10.2384 6.60729 9.61365 7.11998 9.17412 7.77778C8.73459 8.43557 8.5 9.20893 8.5 10.0001C8.5 11.0609 8.92143 12.0783 9.67157 12.8285C10.4217 13.5786 11.4391 14.0001 12.5 14.0001ZM12.5 8.00006C12.8956 8.00006 13.2822 8.11736 13.6111 8.33712C13.94 8.55688 14.1964 8.86924 14.3478 9.23469C14.4991 9.60014 14.5387 10.0023 14.4616 10.3902C14.3844 10.7782 14.1939 11.1346 13.9142 11.4143C13.6345 11.694 13.2781 11.8845 12.8902 11.9616C12.5022 12.0388 12.1001 11.9992 11.7346 11.8478C11.3692 11.6964 11.0568 11.4401 10.8371 11.1112C10.6173 10.7823 10.5 10.3956 10.5 10.0001C10.5 9.46963 10.7107 8.96092 11.0858 8.58584C11.4609 8.21077 11.9696 8.00006 12.5 8.00006Z" fill="#E73C5B"/>
<path d="M22.5 12.0001C22.5014 10.2704 22.0541 8.56989 21.2019 7.06474C20.3496 5.55958 19.1215 4.30122 17.6376 3.41259C16.1536 2.52395 14.4645 2.03541 12.7353 1.99471C11.0061 1.95401 9.2959 2.36253 7.77177 3.18037C6.24764 3.99821 4.96171 5.19739 4.03958 6.66078C3.11746 8.12417 2.59067 9.80172 2.5107 11.5296C2.43072 13.2574 2.80028 14.9764 3.58328 16.5188C4.36628 18.0611 5.53594 19.3739 6.978 20.3291C6.986 20.3351 6.991 20.3421 6.999 20.3481C7.037 20.3731 7.079 20.3901 7.118 20.4151C7.44053 20.6207 7.77439 20.808 8.118 20.9761C8.209 21.0201 8.299 21.0661 8.392 21.1071C8.78131 21.2867 9.18221 21.44 9.592 21.5661C9.641 21.5821 9.692 21.5911 9.743 21.6051C10.1115 21.7098 10.4858 21.7929 10.864 21.8541C10.974 21.8731 11.083 21.8911 11.193 21.9051C11.6261 21.9652 12.0627 21.997 12.5 22.0001C12.9349 21.9967 13.3692 21.9649 13.8 21.9051C13.91 21.8911 14.019 21.8731 14.129 21.8541C14.5072 21.7929 14.8815 21.7098 15.25 21.6051C15.3 21.5911 15.35 21.5821 15.401 21.5661C15.8108 21.44 16.2117 21.2867 16.601 21.1071C16.694 21.0661 16.784 21.0201 16.875 20.9761C17.2186 20.808 17.5525 20.6207 17.875 20.4151C17.914 20.3901 17.956 20.3731 17.994 20.3481C18.002 20.3421 18.007 20.3351 18.015 20.3291C19.3919 19.4187 20.5221 18.1817 21.3046 16.7284C22.0872 15.2751 22.4979 13.6507 22.5 12.0001ZM4.5 12.0001C4.49741 10.6727 4.82515 9.36551 5.45369 8.19637C6.08222 7.02722 6.99179 6.03285 8.10043 5.30286C9.20906 4.57287 10.4819 4.13021 11.8043 4.01478C13.1266 3.89934 14.4569 4.11476 15.6753 4.64161C16.8936 5.16847 17.9617 5.9902 18.7833 7.03275C19.6049 8.07531 20.1542 9.30591 20.3817 10.6137C20.6091 11.9214 20.5076 13.2652 20.0862 14.5239C19.6649 15.7827 18.9369 16.9168 17.968 17.8241C17.5637 16.9812 16.9302 16.2692 16.14 15.7698C15.3497 15.2703 14.4348 15.0036 13.5 15.0001H11.5C10.5652 15.0036 9.65025 15.2703 8.86004 15.7698C8.06982 16.2692 7.43628 16.9812 7.032 17.8241C6.23352 17.0785 5.59676 16.1768 5.1612 15.175C4.72564 14.1731 4.50059 13.0925 4.5 12.0001ZM15.345 19.4681C13.5096 20.15 11.4904 20.15 9.655 19.4681C9.62 19.4541 9.583 19.4431 9.548 19.4291C9.25112 19.3135 8.96158 19.1799 8.681 19.0291C8.88086 18.4393 9.25999 17.9267 9.76541 17.5629C10.2708 17.1991 10.8773 17.0023 11.5 17.0001H13.5C14.1225 17.0022 14.7287 17.1987 15.2341 17.5621C15.7395 17.9255 16.1188 18.4377 16.319 19.0271C16.0384 19.1779 15.7489 19.3115 15.452 19.4271C15.417 19.4431 15.38 19.4541 15.345 19.4681Z" fill="#E73C5B"/>
</svg>
