<svg width="24" height="25" viewBox="0 0 24 25" fill="none" xmlns="http://www.w3.org/2000/svg">
<path d="M12 6.5C15.537 6.5 18.837 7.853 21.293 10.309L22.707 8.895C19.874 6.061 16.071 4.5 12 4.5C7.92897 4.501 4.12597 6.061 1.29297 8.895L2.70697 10.309C5.16297 7.853 8.46297 6.5 12 6.5ZM17.671 14.807C14.597 11.733 9.40297 11.733 6.32897 14.807L7.74297 16.221C10.05 13.914 13.95 13.914 16.257 16.221L17.671 14.807Z" fill="#30D158"/>
<path d="M20.437 11.793C15.865 7.21905 8.13596 7.21905 3.56396 11.793L4.97797 13.207C8.78497 9.40005 15.216 9.40005 19.023 13.207L20.437 11.793Z" fill="#30D158"/>
<path d="M11.9999 20.5C13.1045 20.5 13.9999 19.6046 13.9999 18.5C13.9999 17.3954 13.1045 16.5 11.9999 16.5C10.8954 16.5 9.99994 17.3954 9.99994 18.5C9.99994 19.6046 10.8954 20.5 11.9999 20.5Z" fill="#30D158"/>
</svg>
